<?xml version="1.0"?>
<svg xmlns="http://www.w3.org/2000/svg" xmlns:xlink="http://www.w3.org/1999/xlink" xmlns:svgjs="http://svgjs.com/svgjs" version="1.1" width="512" height="512" x="0" y="0" viewBox="0 0 24 24" style="enable-background:new 0 0 512 512" xml:space="preserve" class=""><g><path xmlns="http://www.w3.org/2000/svg" d="m24 8.65v1.59l-11.07 5.78c-.58.3-1.28.3-1.86 0l-11.07-5.78v-1.59c0-.83.46-1.59 1.19-1.98l9.75-5.21c.66-.35 1.46-.35 2.12 0l9.75 5.21c.73.39 1.19 1.15 1.19 1.98z" fill="#70c7a7" data-original="#2196f3" style="" class=""/><path xmlns="http://www.w3.org/2000/svg" d="m21 2.75c0-1.519-1.231-2.75-2.75-2.75h-12.5c-1.519 0-2.75 1.231-2.75 2.75v17.32c0 .414.336.75.75.75h16.5c.414 0 .75-.336.75-.75z" fill="#eceff1" data-original="#eceff1" style="" class=""/><path xmlns="http://www.w3.org/2000/svg" d="m24 10.24v10.51c0 1.24-1.01 2.25-2.25 2.25h-19.5c-1.24 0-2.25-1.01-2.25-2.25v-10.51l11.07 5.78c.58.3 1.28.3 1.86 0z" fill="#6ce9bb" data-original="#64b5f6" style="" class=""/><g xmlns="http://www.w3.org/2000/svg" fill="#90a4ae"><path d="m16 10h-8c-.552 0-1-.448-1-1s.448-1 1-1h8c.552 0 1 .448 1 1s-.448 1-1 1z" fill="#90a4ae" data-original="#90a4ae" style="" class=""/><path d="m12 6h-4c-.552 0-1-.448-1-1s.448-1 1-1h4c.552 0 1 .448 1 1s-.448 1-1 1z" fill="#90a4ae" data-original="#90a4ae" style="" class=""/></g></g></svg>
